<svg width="18" height="20" viewBox="0 0 18 20" fill="none" xmlns="http://www.w3.org/2000/svg">
<path d="M16.59 4.69C15.5932 4.47079 14.6914 3.94144 14.0141 3.17789C13.3368 2.41435 12.9187 1.45587 12.82 0.44V0H9.36999V13.67C9.37069 14.2766 9.18053 14.868 8.82643 15.3604C8.47234 15.8529 7.97227 16.2215 7.39706 16.414C6.82184 16.6065 6.20065 16.6131 5.62147 16.4329C5.04229 16.2527 4.53449 15.8948 4.16999 15.41C3.84344 14.9808 3.64348 14.4689 3.59272 13.932C3.54196 13.3951 3.64243 12.8548 3.88277 12.372C4.12311 11.8892 4.49372 11.4834 4.9527 11.2003C5.41169 10.9172 5.94072 10.7681 6.47999 10.77C6.77823 10.7683 7.07499 10.8121 7.35999 10.9V7.4C7.02833 7.35893 6.6941 7.34222 6.35999 7.35C5.1293 7.38288 3.93491 7.77393 2.92308 8.47527C1.91124 9.1766 1.12588 10.1578 0.663169 11.2986C0.200455 12.4395 0.0804708 13.6905 0.317909 14.8986C0.555348 16.1066 1.1399 17.2191 1.99999 18.1C2.88148 18.9962 4.00948 19.6101 5.24069 19.8638C6.47189 20.1175 7.7507 19.9994 8.91465 19.5246C10.0786 19.0498 11.0751 18.2397 11.7776 17.1973C12.4801 16.1548 12.8569 14.9271 12.86 13.67V6.67C14.2515 7.66395 15.92 8.19565 17.63 8.19V4.79C17.2941 4.79139 16.959 4.75787 16.63 4.69H16.59Z" fill="#818698"/>
</svg>
